<?xml version="1.0" standalone="no"?>
<!DOCTYPE svg PUBLIC "-//W3C//DTD SVG 1.1//EN" "http://www.w3.org/Graphics/SVG/1.1/DTD/svg11.dtd">
<svg xmlns="http://www.w3.org/2000/svg">
<metadata>Copyright (C) 2018 by original authors @ fontello.com</metadata>
<defs>
<font id="lawyr" horiz-adv-x="1000" >
<font-face font-family="lawyr" font-weight="400" font-stretch="normal" units-per-em="1000" ascent="850" descent="-150" />
<missing-glyph horiz-adv-x="1000" />
<glyph glyph-name="spinner" unicode="&#xe800;" d="M462 850c-6 0-11-5-11-11l0-183 0 0c0-6 5-11 11-11l69 0c1 0 1 0 1 0 7 0 12 5 12 11l0 183 0 0c0 6-5 11-12 11l-69 0c0 0 0 0-1 0z m250-47c-4 1-8-2-10-5l-91-158 0 0c-4-6-2-13 4-16l60-34c0-1 0-1 0-1 6-3 13-1 16 4l91 158c3 6 2 13-4 16l-61 35c-1 1-3 1-5 1z m-428-2c-2 0-4-1-6-2l-61-35c-5-3-7-10-4-16l91-157c0 0 0 0 0 0 3-6 10-8 16-5l61 35c5 4 7 11 4 16l-91 157c0 1 0 1 0 1-2 4-6 6-10 6z m620-163c-2 0-4 0-6-1l-157-91c0 0 0 0 0 0-6-3-8-10-5-16l35-61c4-5 11-7 16-4l157 91c1 0 1 0 1 0 6 3 7 11 4 16l-35 61c-2 4-6 6-10 5z m-810-4c-5 0-9-2-11-6l-35-61c-3-5-1-12 4-15l158-91 0 0c6-4 13-2 16 4l35 60c0 0 0 0 0 0 3 6 1 13-4 16l-158 91c-2 1-4 2-5 2z m712-235l0 0c-6 0-11-5-11-11l0-69c0-1 0-1 0-1 0-7 5-12 11-12l183 0 0 0c6 0 11 5 11 12l0 69c0 0 0 0 0 1 0 6-5 11-11 11l-183 0z m-794-5l0 0c-7 0-12-5-12-12l0-69c0 0 0 0 0-1 0-6 5-11 12-11l182 0 0 0c6 0 11 5 11 11l0 69c0 1 0 1 0 1 0 7-5 12-11 12l-182 0z m772-153c-4 0-8-2-10-6l-34-60c-1 0-1 0-1 0-3-6-1-13 4-16l158-91c6-3 13-1 16 4l35 61c3 5 1 12-4 15l-158 92 0 0c-2 1-4 1-6 1z m-566-5c-1 0-3 0-5-1l-157-91c0 0-1 0-1 0-5-3-7-10-4-16l35-61c3-5 10-7 16-4l157 91c0 0 0 0 0 0 6 3 8 10 5 16l-35 61c-3 3-7 6-11 5z m468-121c-2 0-4 0-6-1l-61-35c-5-4-7-11-4-16l91-157c0-1 0-1 0-1 3-6 11-7 16-4l61 35c5 3 7 10 4 16l-91 157c0 0 0 0 0 0-2 4-6 6-10 6z m-367-2c-4 0-8-2-10-6l-91-158c-3-6-1-13 4-16l61-35c5-3 12-1 15 4l92 158 0 0c3 6 1 13-5 16l-60 35c0 0 0 0 0 0-2 1-4 1-6 2z m149-58c-7 0-12-5-12-11l0-183 0 0c0-6 5-11 12-11l69 0c0 0 0 0 1 0 6 0 11 5 11 11l0 183 0 0c0 6-5 11-11 11l-69 0c-1 0-1 0-1 0z" horiz-adv-x="1000" />

<glyph glyph-name="plus" unicode="&#xe801;" d="M550 400q30 0 30-50t-30-50l-210 0 0-210q0-30-50-30t-50 30l0 210-210 0q-30 0-30 50t30 50l210 0 0 210q0 30 50 30t50-30l0-210 210 0z" horiz-adv-x="580" />

<glyph glyph-name="caret" unicode="&#xeb1c;" d="M500 65c-18 0-36 7-49 21l-430 430c-28 27-28 71 0 99 27 27 71 27 99 0l380-381 381 381c27 27 71 27 99 0 27-28 27-72 0-99l-430-430c-14-14-32-21-50-21z" horiz-adv-x="1000" />

<glyph glyph-name="olive" unicode="&#xeb1e;" d="M1028 323c-1 1-26 26-69 26-13 0-26-2-40-7-8-3-16-7-23-11 1 5 1 9 1 14 0 22-1 43-3 63 2 0 4 0 6 0 16 0 41 5 66 29 47 48 24 97 23 99-2 3-5 6-8 8-1 0-14 6-32 6-17 0-42-5-66-29-3-3-6-6-8-9-8 25-17 48-26 69 16 6 37 20 49 53 22 59-18 91-19 92-3 3-7 4-11 4-6 0-53-2-74-58 0-2 0-3-1-5-7 8-13 16-20 22-7 7-14 14-21 20 11 12 21 31 18 61-5 57-49 68-51 68-4 1-8 1-11 0-2-1-44-20-39-76-13 5-22 8-22 8-9 3-19-2-21-12-3-9 2-18 11-21 1 0 11-3 26-10-4-3-9-5-14-9-46-32-34-77-33-79 1-3 3-6 6-9 1-1 16-11 38-11 16 0 32 5 47 16 18 12 27 26 32 39 11-10 23-22 34-36-7 0-14 0-21-2-62-11-70-61-70-63-1-3 0-7 2-10 1-2 20-37 69-37 6 0 12 0 18 1 25 5 42 16 52 27 8-17 15-36 20-57-6 3-12 6-20 8-10 2-19 4-29 4-45 0-67-32-68-34-2-3-3-7-2-10 0-3 4-57 69-74 9-3 19-4 28-4 16 0 29 4 40 9 1-16 2-33 2-51 0 0 0 0 0-1-3 4-6 7-10 10-20 17-42 25-65 25-23 0-39-9-40-10-4-2-6-5-7-8-1-3-22-56 33-102 20-17 42-25 64-25 3 0 6 0 8 0-7-24-17-47-28-67-2 7-5 14-8 21-27 58-75 62-89 62-3 0-5 0-5 0-4-1-8-2-10-5-2-1-45-43-13-112 15-33 38-49 57-56-18-17-36-33-54-47 1 8 2 16 2 25 0 79-60 100-63 101-3 1-7 1-10 0-3-1-63-22-63-101 0-43 18-69 34-84-26-13-43-18-44-19-9-2-14-12-11-21 2-7 9-12 16-12 2 0 3 0 5 1 1 0 21 7 52 22 4-22 17-52 56-74 19-11 39-17 58-17l1 0c35 0 57 19 59 21 3 2 5 5 6 9 0 3 12 65-56 105-10 5-19 9-29 12 24 18 48 38 71 62 12-18 35-39 78-43 5 0 8-1 12-1l0 0c66 0 88 50 89 52 1 3 2 7 1 11-1 2-16 61-90 67-9 1-17 1-25 0 15 25 27 53 36 83 10-5 24-10 42-10 13 0 25 2 38 7 66 24 72 81 72 83 0 5-1 10-5 14z m-340 340c-9-7-19-10-28-10-5 0-9 1-12 2 0 8 2 23 21 35 13 10 26 12 38 9 1-1 1-1 2-1 0-8-3-23-21-35z m37 67c-5 3-9 6-13 8-5 7-8 16-9 26-2 22 7 34 13 39 7-4 19-14 21-36 1-20-6-31-12-37z m40-169c-4-1-8-1-12-1-19 0-30 8-36 14 4 9 14 24 41 29 18 3 34-1 45-11 1 0 1-1 2-1 0-1 0-1 1-2-4-9-14-23-41-28z m67 50c-2 5-5 10-8 14-3 9-3 21 2 35 10 26 26 33 36 35 5-7 14-23 4-49-9-25-24-32-34-35z m-11-190c-6 0-13 1-20 3-30 8-39 27-42 37 5 5 17 13 35 13 7 0 13 0 20-2 26-7 36-22 41-33 0 0 1-1 1-2 0-1 0-1 1-2-6-6-18-14-36-14z m-184-428c0 0-1-1-1-2-2-1-4-2-6-3-10 6-34 24-34 67 0 42 23 60 34 66 11-6 34-24 34-66 0-34-15-52-27-62z m84-36c36-22 40-51 40-63-6-4-17-9-32-9-14 0-28 4-42 13-35 20-41 47-41 60 5 3 9 5 14 8 19 6 40 3 61-9z m60 155c0 0 0 0 0 0-2-2-4-4-5-6-14 1-37 8-53 42-16 35-4 58 2 68 14-1 38-8 54-42 13-28 8-49 2-62z m86 0c38-3 53-25 58-36-6-9-22-25-55-25l0 0c-3 0-6 0-9 0-37 3-52 25-57 35 2 3 5 6 7 10 10 9 27 19 56 16z m-11 159c-4-2-10-3-18-3-14 0-29 6-42 17-27 22-27 46-25 57 4 2 10 3 17 3 15 0 29-6 43-17 22-19 26-38 26-51 0 0 0 0 0-1-1-2-1-4-1-5z m51 226c13 13 27 19 42 19 4 0 8 0 11-1 3-10 4-31-18-54-13-13-28-19-42-19-4 0-8 0-10 1-1 5-2 10-3 15 1 11 6 24 20 39z m43-239c-10-4-18-5-27-5-17 0-28 6-34 11 1 3 1 6 2 10 4 12 15 27 40 36 10 3 19 5 28 5 18 0 31-6 38-11-4-12-15-34-47-46z m-456-306c-1 1-18 6-44 19 16 15 34 41 34 84 0 79-60 100-63 101-3 1-7 1-10 0-3-1-63-22-63-101 0-9 1-17 2-25-18 14-36 30-54 47 19 7 42 23 57 56 32 69-11 111-13 112-3 3-6 4-10 5 0 0-2 0-6 0-14 0-61-4-88-62-4-7-6-14-8-21-11 20-21 43-28 67 2 0 5 0 7 0 23 0 45 8 65 25 54 46 34 99 33 102-1 3-4 6-7 8-1 1-17 10-41 10-22 0-44-8-64-25-4-3-7-6-10-10 0 1 0 1 0 1 0 18 1 35 2 52 10-6 23-10 40-10 9 0 19 1 28 4 65 17 69 71 69 74 1 3 0 7-3 10 0 2-22 34-68 34-9 0-18-2-28-4-8-3-15-5-21-8 6 21 13 40 20 58 11-12 27-23 53-28 6-1 12-1 18-1 48 0 68 35 69 37 2 3 2 7 2 10 0 2-9 52-70 63-8 2-15 2-22 2 11 14 23 27 35 37 4-13 13-27 31-40 15-11 31-16 47-16 23 0 37 10 39 11 3 3 5 6 6 9 1 2 13 47-33 79-5 4-10 6-15 9 15 7 25 10 27 10 9 3 14 12 11 21-2 10-12 15-21 12-1 0-9-3-22-8 4 56-37 75-39 76-4 1-7 1-11 1-2-1-47-12-52-69-2-30 8-49 19-61-7-6-14-13-21-20-7-6-13-14-20-22-1 2-1 3-1 5-21 56-68 58-75 58l0 0c-3 0-7-1-10-4-1-1-41-33-19-92 12-33 33-47 49-53-9-21-18-44-26-69-2 3-5 6-8 9-24 24-49 29-66 29-18 0-31-6-32-6-3-2-6-5-8-8-1-2-24-51 23-99 25-24 50-29 66-29 2 0 4 0 6 0-2-20-3-41-3-63 0-5 0-9 0-14-6 4-14 8-22 11-14 5-27 7-41 7-42 0-67-25-68-26-4-4-5-9-5-14 0-2 6-59 71-83 13-5 26-7 39-7 17 0 32 5 42 10 9-30 21-58 36-83-8 1-16 1-25 0-75-6-89-65-90-67-1-4-1-8 1-11 1-2 23-52 89-52 3 0 7 1 11 1 44 4 67 25 79 43 23-24 47-44 71-62-10-3-19-7-29-12-68-40-57-102-56-105 1-4 3-7 5-9 3-2 25-21 60-21 20 0 40 6 59 17 39 22 52 52 56 74 30-15 51-22 52-22 1-1 3-1 5-1 7 0 14 5 16 12 3 9-2 19-11 21z m-117 738c18-12 21-27 21-35-3-1-7-2-13-2-9 0-18 3-27 10-18 12-21 27-21 35 0 0 1 0 2 1 12 3 25 1 38-9z m-68 77c2 22 13 32 20 36 7-5 16-17 14-39-1-10-4-19-9-26-4-2-9-5-13-8-6 6-14 17-12 37z m-66-175c11 10 26 14 45 11 27-5 37-20 40-29-5-6-16-14-35-14-4 0-8 0-12 1-28 5-38 20-41 29 1 1 2 1 3 2z m-63 54c-10 26-1 42 4 49 9-2 26-9 36-35 5-14 4-26 2-35-3-4-6-9-9-14-9 3-25 10-33 35z m9-209c1 1 2 2 2 2 5 11 15 26 41 33 7 2 13 2 19 2 19 0 30-8 36-13-3-10-12-29-43-37-6-2-13-3-19-3-19 0-30 8-36 14 0 0 0 1 0 2z m-66-184c-9 0-18 1-27 5-32 12-43 34-47 46 7 5 20 11 37 11 10 0 19-2 29-5 25-9 36-24 40-36 1-4 1-7 2-10-6-5-18-11-34-11z m33 190c-3-1-6-1-10-1-15 0-29 6-42 19-22 23-21 44-18 54 3 1 7 1 11 1 15 0 29-6 42-19 14-15 19-28 20-39-1-5-2-10-3-15z m33-167c0 1 0 1 0 1 0 13 4 32 26 51 13 11 28 17 42 17 8 0 14-1 18-3 2-11 2-35-25-57-14-11-28-17-43-17-7 0-13 1-17 2 0 2 0 4-1 6z m-5-225c-38-3-56 16-63 25 5 11 20 33 58 36 28 3 46-7 56-16 2-4 5-7 7-10-5-10-20-32-58-35z m86 55c-2 2-3 4-5 6 0 0 0 0 0 0-6 13-11 34 2 62 16 34 40 41 53 42 7-10 19-33 2-68-15-34-39-41-52-42z m89-208c-14-9-28-13-42-13-15 0-26 5-32 9 0 12 4 41 40 63 21 12 42 15 61 9 5-3 9-5 14-8-1-13-6-40-41-60z m57 90c-2 1-4 2-6 3 0 1-1 2-1 2-13 10-27 28-27 62 0 42 23 60 34 66 11-6 34-24 34-66 0-43-24-61-34-67z" horiz-adv-x="1043" />

<glyph glyph-name="university" unicode="&#xeb1f;" d="M367 236c0-9 7-16 16-16l65 0c9 0 17 7 17 16l0 98c0 9-8 16-17 16l-65 0c-9 0-16-7-16-16l0-98 0 0z m33 81l32 0 0-65-32 0 0 65z m-17 98l65 0c9 0 17 8 17 17l0 97c0 9-8 17-17 17l-65 0c-9 0-16-8-16-17l0-97c0-9 7-17 16-17z m17 98l32 0 0-65-32 0 0 65z m-139 19l236 141 236-141c3-2 6-3 9-3 5 0 11 3 14 8 4 8 2 18-6 23l-236 142 0 104 81 0 0-32-49 0c-9 0-16-7-16-16 0-9 7-17 16-17l65 0c9 0 17 8 17 17l0 65c0 9-8 16-17 16l-114 0c-9 0-16-7-16-16l0-121-237-142c-7-5-10-15-5-23 4-7 14-10 22-5z m-73-312c9 0 16 7 16 16l0 98c0 9-7 16-16 16l-66 0c-9 0-16-7-16-16l0-33c0-9 7-16 16-16 9 0 17 7 17 16l0 16 32 0 0-81c0-9 8-16 17-16z m114-212l0 472c0 9-8 17-17 17-9 0-16-8-16-17l0-472c0-9 7-17 16-17 9 0 17 8 17 17z m-82-82l554 0c9 0 17 7 17 16 0 9-8 17-17 17l-146 0 0 163 16 0c9 0 16 7 16 16 0 9-7 16-16 16l-293 0c-9 0-17-7-17-16 0-9 8-16 17-16l16 0 0-163-147 0c-9 0-16-8-16-17 0-9 7-16 16-16z m294 98c9 0 16 7 16 16 0 9-7 17-16 17l0 65 81 0 0-163-81 0 0 65z m-114 98l81 0 0-65c-9 0-16-8-16-17 0-9 7-16 16-16l0-65-81 0 0 163z m472 16l-65 0c-9 0-16-7-16-16l0-98c0-9 7-16 16-16l65 0c9 0 17 7 17 16l0 98c0 9-8 16-17 16z m-16-98l-33 0 0 66 33 0 0-66z m16 294l-65 0c-9 0-16-8-16-17l0-97c0-9 7-17 16-17l65 0c9 0 17 8 17 17l0 97c0 9-8 17-17 17z m-16-98l-33 0 0 65 33 0 0-65z m-16-342l-685 0c-9 0-16-8-16-17 0-9 7-16 16-16l685 0c9 0 16 7 16 16 0 9-7 17-16 17z m130 586c-9 0-16-7-16-16l0-16-180 0c-9 0-16-7-16-16 0-9 7-17 16-17l180 0 0-538c0-9 7-16 16-16 9 0 16 7 16 16l0 587c0 9-7 16-16 16z m-440-244c0-9 7-16 16-16l65 0c9 0 17 7 17 16l0 98c0 9-8 16-17 16l-65 0c-9 0-16-7-16-16l0-98z m33 81l32 0 0-65-32 0 0 65z m-392-277c0 2-1 212-81 212-81 0-82-210-82-212 0-39 28-72 65-80l0-83c0-9 8-16 17-16 9 0 16 7 16 16l0 83c37 8 65 41 65 80z m-81-49c-27 0-49 22-49 49 0 82 22 180 49 180 27 0 49-98 49-180 0-27-22-49-49-49z m636 17l0 489c0 9-8 16-17 16-9 0-16-7-16-16l0-489c0-9 7-17 16-17 9 0 17 8 17 17z m-180 407l65 0c9 0 17 8 17 17l0 97c0 9-8 17-17 17l-65 0c-9 0-16-8-16-17l0-97c0-9 7-17 16-17z m17 98l32 0 0-65-32 0 0 65z m-538-244c9 0 16 7 16 16l0 130 179 0c9 0 16 8 16 17 0 9-7 16-16 16l-179 0 0 16c0 9-7 16-16 16-9 0-17-7-17-16l0-179c0-9 8-16 17-16z" horiz-adv-x="986" />

<glyph glyph-name="group" unicode="&#xeb28;" d="M493 618c54 0 98 44 98 98l0 48c0 45-37 82-81 82l-33 0c-45 0-82-37-82-82l0-48c0-54 44-98 98-98z m-65 146c0 27 22 49 49 49l33 0c26 0 48-22 48-49l0-48c0-36-29-66-65-66-36 0-65 30-65 66l0 48 0 0z m82-374l-33 0c-45 0-82-37-82-82l0-49c0-54 44-98 98-98 54 0 98 44 98 98l0 49c0 45-37 82-81 82z m48-131c0-36-29-65-65-65-36 0-65 29-65 65l0 49c0 27 22 49 49 49l33 0c26 0 48-22 48-49l0-49 0 0z m-16 277l0-49c0-54 44-97 98-97 54 0 98 43 98 97l0 49c0 45-37 82-82 82l-32 0c-45 0-82-37-82-82z m33 0c0 27 22 49 49 49l32 0c27 0 49-22 49-49l0-49c0-36-29-65-65-65-36 0-65 29-65 65l0 49 0 0z m212-375c54 0 97 44 97 98l0 49c0 45-36 82-81 82l-33 0c-45 0-81-37-81-82l0-49c0-54 44-98 98-98z m-66 147c0 27 22 49 49 49l33 0c27 0 49-22 49-49l0-49c0-36-29-65-65-65-36 0-66 29-66 65l0 49 0 0z m-178-180c-7 0-14-4-17-11l-33-111-33 111c-2 7-8 11-16 11-56 1-98-12-122-36-16-16-24-37-24-61l0-147c0-9 7-16 16-16 9 0 16 7 16 16l0 147c0 15 5 28 15 38 16 16 46 25 87 27l46-151c2-7 8-12 15-12 7 0 14 5 16 12l45 151c41-2 71-11 87-27 10-10 15-23 15-38l0-147c0-9 8-16 17-16 9 0 16 7 16 16l0 147c0 24-9 45-25 61-24 24-65 36-121 36z m-197 262c54 0 98 43 98 97l0 49c0 45-36 82-81 82l-33 0c-45 0-81-37-81-82l0-49c0-54 44-97 97-97z m-65 146c0 27 22 49 49 49l33 0c27 0 49-22 49-49l0-49c0-36-30-65-66-65-35 0-65 29-65 65l0 49 0 0z m677-444c-24 24-65 36-122 36-7 0-14-4-16-11l-33-111-34 111c-2 7-8 11-15 11-12 0-23 0-34-1-9-1-15-9-14-18 1-9 9-15 18-14 5 0 11 0 18 1l45-151c2-7 8-12 16-12 7 0 13 5 15 12l46 151c41-2 71-11 87-27 10-10 15-23 15-38l0-114c0-9 7-17 16-17 9 0 16 8 16 17l0 114c0 24-8 45-24 61z m-758 69c54 0 98 44 98 98l0 49c0 45-37 82-82 82l-33 0c-44 0-81-37-81-82l0-49c0-54 44-98 98-98z m-65 147c0 27 22 49 48 49l33 0c27 0 49-22 49-49l0-49c0-36-29-65-65-65-36 0-65 29-65 65l0 49 0 0z m148-181c-11 1-22 1-34 1-7 0-14-4-16-11l-33-111-34 111c-2 7-8 11-15 11-58 1-98-12-122-36-16-16-25-37-25-61l0-114c0-9 7-17 16-17 9 0 17 8 17 17l0 114c0 15 5 28 15 38 16 16 46 25 87 27l45-151c2-7 9-12 16-12 7 0 13 5 15 12l46 151c6-1 13-1 19-2 9-1 17 6 17 15 1 9-5 17-14 18z m-264-254l239 0m480 0l239 0" horiz-adv-x="1000" />

<glyph glyph-name="book" unicode="&#xeb29;" d="M361 387l99 0c10 0 17 8 17 17 0 9-7 16-17 16l-99 0c-10 0-17-7-17-16 0-9 7-17 17-17z m499 331l-499 0c-10 0-17-8-17-17 0-9 7-16 17-16l482 0 0-744c0-26-23-50-50-50l-698 0c-27 0-50 24-50 50l0 759c10-7 22-11 33-14l0-745c0-9 7-17 17-17 9 0 16 8 16 17l0 760c0 9-7 17-16 17-9 0-50 3-50 49l0 17c0 18 15 33 33 33l782 0c9 0 16 7 16 17 0 9-7 16-16 16l-782 0c-37 0-67-30-67-66l0-843c0-45 39-83 84-83l698 0c45 0 83 38 83 83l0 760c0 9-7 17-16 17z m-17 49c0 10-8 17-17 17l-532 0c-9 0-16-7-16-17l0-158-39 38c-6 6-17 6-23 0l-38-38 0 158c0 10-8 17-17 17l-66 0c-10 0-17-7-17-17 0-9 7-16 17-16l49 0 0-182c0-7 5-13 11-15 6-3 13-1 18 3l55 55 54-55c4-3 8-4 12-4 2 0 4 0 6 1 7 2 11 8 11 15l0 182 515 0c9 0 17 7 17 16z m-599-264l0-264c0-10 8-17 17-17l366 0c9 0 16 7 16 17l0 264c0 9-7 16-16 16l-366 0c-9 0-17-7-17-16z m34-17l332 0 0-231-332 0 0 231z m249-132l-166 0c-10 0-17-7-17-16 0-9 7-17 17-17l166 0c9 0 17 8 17 17 0 9-8 16-17 16z" horiz-adv-x="889" />

<glyph glyph-name="handcuffs" unicode="&#xeb2a;" d="M235 227c-83 0-150-67-150-149 0-82 67-149 150-149 82 0 149 67 149 149 0 82-67 149-149 149z m0-261c-62 0-112 50-112 112 0 62 50 112 112 112 61 0 112-50 112-112 0-62-51-112-112-112z m-19 411l0-38c0-10 8-18 19-18 10 0 18 8 18 18l0 38c0 10-8 18-18 18-11 0-19-8-19-18z m849 83c-53 53-126 74-194 63l-96 96c-21 21-57 22-77 2l-18-18-4 55c0 0 0 1 0 1 23 20 25 55 6 78l-61 71c-20 23-55 26-79 6-1 0-1-1-2-2l-59 5c-6 9-13 16-23 20-13 7-28 8-43 4l-88-30c-25-8-40-33-38-58l-45-39c-1 0-2 0-3 0-30 2-58-21-60-52l-6-93c-1-27 16-51 41-58l0-60-59 0c-29 0-53-25-53-56l0-135c-56-41-93-107-93-182 0-124 100-224 224-224 123 0 224 100 224 224 0 75-37 141-94 182l0 135c0 31-24 56-52 56l-60 0 0 63c6 2 11 5 15 9 11 10 18 24 19 39l6 93c1 15-4 29-14 40l27 23c4-4 8-7 13-10 8-4 17-6 26-6 6 0 11 1 17 3l89 29c20 7 34 25 37 45l35-3c-1-14 3-29 13-41l60-71c11-13 27-19 43-19 0 0 0 0 1 0l5-77-57-57c-21-20-20-55 2-77l96-96c-11-69 9-141 62-194 44-44 101-66 159-66 57 0 114 22 158 66 87 87 87 229 0 316z m-644-382c0-103-83-187-186-187-103 0-187 84-187 187 0 103 84 187 187 187 6 0 13-1 19-1 1 0 2-1 3-1 6 0 11-1 17-2 1-1 1-1 2-1 6-1 11-3 17-5 0 0 1 0 1 0 6-2 12-4 18-7 64-29 109-94 109-170z m-93 317l0-112-4 0c-27 12-58 19-89 19-27 0-65-5-94-13l0 106c0 10 8 19 16 19l156 0c7 0 15-9 15-19z m-78 169c0-5-3-9-6-13-4-3-9-5-14-4-10 0-18 9-17 19l6 94c0 9 9 17 18 17 1 0 1 0 1 0 5 0 10-3 13-6 4-4 5-9 5-14l-6-93z m200 215c-2-4-6-8-11-9l-89-30c-4-1-9-1-14 1-4 3-8 6-9 11 0 0 0 0 0 0-2 5-1 10 1 14 2 5 6 8 11 10l88 29c2 1 4 1 6 1 3 0 6-1 8-2 5-2 8-6 9-10 1-1 1-1 1-1 1-5 1-10-1-14z m175-90l-61 71c-6 7-6 19 2 26 4 3 8 4 12 4 6 0 11-2 15-6l60-71c7-8 6-20-2-27-8-6-20-5-26 3z m67-304l-76 75c-6 7-7 19-2 25l110 110c3 3 7 3 10 3 0 0 1 0 1 0 5 0 10-2 13-6l79-79-2-3c-28-11-54-27-77-50-18-18-42-48-56-75z m347-215c-73-73-192-73-264 0-73 73-73 191 0 264 4 5 9 9 14 13 1 1 2 1 2 2 5 3 10 7 14 10 1 0 1 0 2 1 5 3 10 6 16 9 0 0 0 0 1 0 5 3 11 5 17 8 21 8 43 12 66 12 47 0 95-19 132-55 73-73 73-191 0-264z m-27 238c-58 58-153 58-211 0-58-59-58-153 0-211 29-30 67-44 106-44 38 0 76 14 105 44 59 58 59 152 0 211z m-26-185c-44-44-115-44-158 0-44 44-44 115 0 158 21 22 50 33 79 33 28 0 57-11 79-33 44-43 44-114 0-158z m-277 303c-8 8-19 8-27 0-7-7-7-19 0-26l27-26c3-4 8-6 13-6 5 0 9 2 13 6 7 7 7 19 0 26l-26 26z" horiz-adv-x="1133" />

<glyph glyph-name="grid" unicode="&#xeb2d;" d="M267 850h-231c-15 0-28-12-28-28v-231c0-15 13-28 28-28h231c16 0 28 13 28 28v231c0 16-12 28-28 28z m-25-234h-178v178h178v-178z m374 234h-232c-15 0-27-12-27-28v-231c0-15 12-28 27-28h232c15 0 28 13 28 28v231c0 16-13 28-28 28z m-25-234h-179v178h179v-178z m-324-117h-231c-15 0-28-12-28-28v-231c0-15 13-28 28-28h231c16 0 28 13 28 28v231c0 16-12 28-28 28z m-25-231h-178v175h178v-175z m374 231h-232c-15 0-27-12-27-28v-231c0-15 12-28 27-28h232c15 0 28 13 28 28v231c0 16-13 28-28 28z m-25-231h-179v175h179v-175z m373 582h-231c-16 0-28-12-28-28v-231c0-15 12-28 28-28h231c15 0 28 13 28 28v231c0 16-13 28-28 28z m-25-234h-179v178h179v-178z m25-117h-231c-16 0-28-12-28-28v-231c0-15 12-28 28-28h231c15 0 28 13 28 28v231c0 16-13 28-28 28z m-25-231h-179v175h179v-175z m-672-131h-231c-15 0-28-13-28-28v-231c0-16 13-28 28-28h231c16 0 28 12 28 28v231c0 15-12 28-28 28z m-25-234h-178v178h178v-178z m374 234h-232c-15 0-27-13-27-28v-231c0-16 12-28 27-28h232c15 0 28 12 28 28v231c0 15-13 28-28 28z m-25-234h-179v178h179v-178z m373 234h-231c-16 0-28-13-28-28v-231c0-16 12-28 28-28h231c15 0 28 12 28 28v231c0 15-13 28-28 28z m-25-234h-179v178h179v-178z" horiz-adv-x="1000" />

<glyph glyph-name="checklist-search" unicode="&#xeb2e;" d="M523 607c-12 12-30 12-42 0l-96-96-38 38c-12 11-30 11-41 0-12-12-12-30 0-42l58-59c12-11 30-11 42 0l117 118c11 11 11 30 0 41z m0-469c-12 12-30 12-42 0l-96-96-38 38c-12 11-30 11-41 0-12-12-12-30 0-42l58-58c12-12 30-12 42 0l117 117c11 11 11 30 0 41z m468-58l-99 99c31 40 49 90 49 144 0 86-47 162-117 203v148h147c16 0 29 13 29 30 0 38-14 75-41 101-29 30-70 45-119 45h-518c0 0 0 0-1 0-90-1-145-75-145-151v-611h-147c-16 0-29-13-29-29v-92c0-64 53-117 117-117h619c49 0 88 39 88 88v182c10 5 18 11 27 18l99-100c11-11 30-11 41 0 12 12 12 30 0 42z m-815-113v0c0-32-26-58-59-58s-58 26-58 58v63h117v-63z m664 824c57 0 86-27 97-58h-471c-5 21-14 41-27 58h401z m-74-853c0-16-13-29-30-29h-517c10 17 15 37 15 58v0c0 31 0 703 0 732 0 41 25 77 59 88 29 9 58 4 81-12 23-17 36-44 36-71 0-17 13-30 30-30h326v-124c-19 5-39 7-59 7-113 0-208-81-230-188l-92-93-38 38c-12 12-30 12-41 0-12-11-12-30 0-41l58-59c12-11 30-11 42 0l70 70c18-111 115-196 231-196 20 0 40 3 59 8v-158z m-59 209c-97 0-176 79-176 176 0 97 79 175 176 175 97 0 176-78 176-175 0-97-79-176-176-176z m-29-117h-117c-17 0-30-13-30-30s13-29 30-29h117c16 0 29 13 29 29s-13 30-29 30z" horiz-adv-x="1000" />

<glyph glyph-name="checklist" unicode="&#xeb2f;" d="M242 589h298c22 0 40 18 40 40 0 22-18 40-40 40h-298c-22 0-39-18-39-40 0-22 17-40 39-40z m338-128c0 22-18 39-40 39h-298c-22 0-39-17-39-39 0-22 17-40 39-40h298c22 0 40 18 40 40z m362-2c-55 4-119-24-181-66v396c0 22-18 40-40 40h-659c-22 0-40-18-40-40v-877c0-22 18-40 40-40h659c22 0 40 18 40 40v379c66 55 129 92 175 88 22-2 41 15 43 37 1 22-15 41-37 43z m-261-507h-579v797h579v-418c-88-75-165-165-206-214l-57 52c-16 15-42 13-56-3-15-16-14-42 3-56l88-80c9-10 38-20 58 5 46 54 106 123 170 185v-268z" horiz-adv-x="1000" />

<glyph glyph-name="list" unicode="&#xeb30;" d="M404 252c-12 11-30 11-42 0l-97-97-39 38c-12 12-31 11-42 0-11-12-11-30 1-42l60-58c6-6 13-9 21-9 7 0 15 3 20 9l118 117c11 12 11 30 0 42z m0 175c-12 12-30 12-42 0l-97-96-39 38c-12 11-31 11-42-1-11-11-11-30 1-41l60-59c6-5 13-8 21-8 7 0 15 3 20 9l118 117c11 11 11 30 0 41z m0 176c-12 12-30 12-42 0l-97-97-39 39c-12 11-31 11-42-1-11-11-11-30 1-41l60-59c6-5 13-8 21-8 7 0 15 3 20 9l118 117c11 11 11 30 0 41z m570-58l-41 41c-34 34-90 34-124 0-15-14-29-28-43-43v98c0 8-3 15-9 21l-175 179c-6 6-14 9-21 9h-473c-16 0-29-13-29-29v-795h-30c-16 0-29-13-29-30v-58c0-49 39-88 88-88h590c48 0 88 39 88 88v274c8 8 199 199 208 208 35 35 35 90 0 125z m-384 204l77-79h-77v79z m-502-840c-16 0-29 13-29 29v29c16 0 504 0 531 0v-29c0-10 2-20 5-29h-507z m619 29h0c0-16-13-29-29-29s-29 13-29 29v58c0 17-14 30-30 30h-502v765h414v-150c0-16 13-29 30-29h146v-127l-188-189c-4-4-7-9-8-14l-38-162c-2-10 1-20 8-27 7-7 18-10 28-8l161 37c5 2 11 5 14 8l23 23v-215z m-151 279l49-49-64-15 15 64z m108-25l-83 83 207 207 83-82-207-208z m269 270l-21-21-83 83 21 21c11 11 30 11 41 0l42-42c11-11 11-30 0-41z" horiz-adv-x="1000" />

<glyph glyph-name="calendar" unicode="&#xeb32;" d="M844 756h-125v32c0 18-13 31-31 31s-32-13-32-31v-32h-312v32c0 18-13 31-31 31-19 0-32-13-32-31v-32h-125c-87 0-156-68-156-156v-562c0-88 69-157 156-157h688c87 0 156 69 156 157v562c0 88-69 156-156 156z m-781-156c0 50 43 94 93 94h125v-31c0-19 13-32 32-32 18 0 31 13 31 32v31h312v-31c0-19 13-32 32-32s31 13 31 32v31h125c50 0 94-44 94-94v-94h-875v94z m875-562c0-51-44-94-94-94h-688c-50 0-93 43-93 94v406h875v-406z m-719 0c19 0 31 6 44 18 12 13 18 32 18 44s-6 31-18 44c-25 25-63 25-88 0-12-13-19-25-19-44 0-12 7-31 19-44s25-18 44-18z m0 187c19 0 31 6 44 19s18 31 18 44-6 31-18 43c-25 25-63 25-88 0-12-12-19-25-19-43 0-19 7-32 19-44s25-19 44-19z m187-187c19 0 32 6 44 18 13 13 19 32 19 44s-6 31-19 44c-25 25-62 25-87 0-13-13-19-31-19-44s6-31 19-44c12-12 25-18 43-18z m0 187c19 0 32 6 44 19 13 12 19 31 19 44s-6 31-19 43c-25 25-62 25-87 0-13-12-19-31-19-43s6-32 19-44c12-13 25-19 43-19z m188-187c19 0 31 6 44 18 12 13 18 25 18 44 0 19-6 31-18 44-25 25-63 25-88 0-12-13-19-31-19-44s7-31 19-44 25-18 44-18z m0 187c19 0 31 6 44 19s18 25 18 44c0 12-6 31-18 43-25 25-63 25-88 0-12-12-19-31-19-43s7-32 19-44 25-19 44-19z m187-187c19 0 32 6 44 18 13 13 19 32 19 44s-6 31-19 44c-25 25-62 25-87 0-13-13-19-25-19-44 0-12 6-31 19-44 12-12 25-18 43-18z m0 187c19 0 32 6 44 19s19 25 19 44c0 12-6 31-19 43-25 25-62 25-87 0-13-12-19-31-19-43s6-32 19-44c12-13 25-19 43-19z" horiz-adv-x="1000" />

<glyph glyph-name="bar-graph" unicode="&#xeb33;" d="M914 804h-92c-48 0-87-39-87-86v-736c0-47 39-86 87-86h92c47 0 86 39 86 86v736c0 47-39 86-86 86z m5-822c0-3-2-5-5-5h-92c-3 0-6 2-6 5v736c0 3 3 5 6 5h92c3 0 5-2 5-5v-736z m-373 592h-92c-48 0-86-38-86-86v-506c0-47 38-86 86-86h92c48 0 86 39 86 86v506c0 48-38 86-86 86z m6-592c0-3-3-5-6-5h-92c-3 0-5 2-5 5v506c0 3 2 5 5 5h92c3 0 6-2 6-5v-506z m-374 362h-92c-47 0-86-38-86-86v-276c0-47 39-86 86-86h92c48 0 87 39 87 86v276c0 48-39 86-87 86z m6-362c0-3-3-5-6-5h-92c-3 0-5 2-5 5v276c0 3 2 6 5 6h92c3 0 6-3 6-6v-276z" horiz-adv-x="1000" />

<glyph glyph-name="back" unicode="&#xf100;" d="M502 696l-374-346 373-346-85-92-377 349c-52 48-52 129 0 177l378 350z m-377-408v125h875v-125h-875z" horiz-adv-x="1000" />

<glyph glyph-name="menu" unicode="&#xf102;" d="M375 350c0 69 56 125 125 125s125-56 125-125-56-125-125-125-125 56-125 125z m0-375c0 69 56 125 125 125s125-56 125-125-56-125-125-125-125 56-125 125z m0 750c0 69 56 125 125 125s125-56 125-125-56-125-125-125-125 56-125 125z" horiz-adv-x="1000" />

<glyph glyph-name="checkboard" unicode="&#xf106;" d="M888 743c20 0 37-16 37-36v-820c0-21-17-37-37-37h-776c-20 0-36 16-36 37v820c0 20 16 36 36 36h93c20 0 37-16 37-36 0-21-17-37-37-37h-56v-747h702v747h-197c-20 0-37 16-37 37v70h-234v-120h191c20 0 36-17 36-37 0-20-16-37-36-37h-227c-21 0-37 17-37 37v193c0 21 16 37 37 37h307c20 0 37-16 37-37v-70h197z m-219-336c15-15 15-38 0-52l-197-196c-7-7-17-11-26-11-10 0-19 4-26 11l-89 89c-14 15-14 38 0 52s38 15 52 0l63-63 171 170c15 14 38 14 52 0z" horiz-adv-x="1000" />

<glyph glyph-name="lines" unicode="&#xf109;" d="M755 493c23 0 41-19 41-41s-18-40-41-40h-715c-22 0-40 18-40 40s18 41 40 41h715z m205 204c22 0 40-18 40-41s-18-40-40-40h-920c-22 0-40 18-40 40s18 41 40 41h920z m0-409c22 0 40-18 40-40s-18-40-40-40h-920c-22 0-40 18-40 40s18 40 40 40h920z m-205-204c23 0 41-18 41-40s-18-41-41-41h-715c-22 0-40 18-40 41s18 40 40 40h715z" horiz-adv-x="1000" />

<glyph glyph-name="flipcards" unicode="&#xf10a;" d="M978 616c13-7 22-21 22-36 0-15-9-29-22-36l-460-230c-6-3-12-4-18-4-6 0-12 1-18 4l-460 230c-13 7-22 21-22 36s9 29 22 36l460 230c11 5 25 5 36 0z m-478-221l369 185-369 184-369-184z m496-257c10-20 2-44-18-54l-460-230c-6-3-12-4-18-4-6 0-12 1-18 4l-460 230c-20 10-28 34-18 54 10 20 35 28 55 18l441-220 442 220c20 10 44 2 54-18z m0 230c10-20 2-44-18-54l-460-230c-6-3-12-4-18-4-6 0-12 1-18 4l-460 230c-20 10-28 34-18 54 10 20 35 28 55 18l441-221 442 221c20 10 44 2 54-18z" horiz-adv-x="1000" />

<glyph glyph-name="block" unicode="&#xf10b;" d="M347 850c50 0 91-41 91-91v-256c0-50-41-91-91-91h-255c-51 0-92 41-92 91v256c0 50 41 91 92 91h255z m11-347v256c0 5-5 10-11 10h-255c-6 0-11-5-11-10v-256c0-6 5-10 11-10h255c6 0 11 4 11 10z m551 347c50 0 91-41 91-91v-256c0-50-41-91-91-91h-256c-50 0-91 41-91 91v256c0 50 41 91 91 91h256z m10-347v256c0 5-5 10-10 10h-256c-6 0-10-5-10-10v-256c0-6 4-10 10-10h256c5 0 10 4 10 10z m-10-215c50 0 91-41 91-91v-256c0-50-41-91-91-91h-256c-50 0-91 41-91 91v256c0 50 41 91 91 91h256z m10-347v256c0 6-5 11-10 11h-256c-6 0-10-5-10-11v-256c0-5 4-10 10-10h256c5 0 10 5 10 10z m-572 347c50 0 91-41 91-91v-256c0-50-41-91-91-91h-255c-51 0-92 41-92 91v256c0 50 41 91 92 91h255z m11-347v256c0 6-5 11-11 11h-255c-6 0-11-5-11-11v-256c0-5 5-10 11-10h255c6 0 11 5 11 10z" horiz-adv-x="1000" />

<glyph glyph-name="trash" unicode="&#xf10c;" d="M914 666c22 0 40-18 40-40 0-22-18-41-40-41h-828c-22 0-40 19-40 41 0 22 18 40 40 40h828z m-92 0c22 0 40-18 40-40v-644c0-73-59-132-132-132h-460c-73 0-132 59-132 132v644c0 22 18 40 40 40s41-18 41-40v-644c0-28 23-51 51-51h460c28 0 51 23 51 51v644c0 22 18 40 41 40z m-230 184c73 0 132-59 132-132v-92c0-22-18-41-40-41s-41 19-41 41v92c0 28-23 51-51 51h-184c-28 0-51-23-51-51v-92c0-22-18-41-41-41s-40 19-40 41v92c0 73 59 132 132 132h184z m-184-414c22 0 41-18 41-40v-276c0-22-19-40-41-40-22 0-40 18-40 40v276c0 22 18 40 40 40z m184 0c22 0 40-18 40-40v-276c0-22-18-40-40-40-22 0-40 18-40 40v276c0 22 18 40 40 40z" horiz-adv-x="1000" />

<glyph glyph-name="thumb-up" unicode="&#xf10d;" d="M967 474c21-28 30-63 24-98l-63-414c-5-31-21-60-45-81-24-20-55-31-86-31 0 0-1 0-1 0h-518c-23 0-41 18-41 40v506c0 6 1 11 4 16l183 414c7 15 21 24 37 24 99 0 179-80 179-178v-144h219c7 0 14 0 21-1 35-5 66-24 87-53z m-56-86c2 14-1 27-9 39s-20 18-34 20c-3 0-5 1-8 1 0 0 0 0-1 0h-260c-22 0-40 18-40 40v184c0 45-31 83-73 94l-168-379v-456h478c0 0 0 0 0 0 1 0 1 0 1 0 25 0 47 18 51 44z m-633-457c22 0 40-18 40-41 0-22-18-40-40-40h-138c-73 0-133 59-133 132v322c0 73 60 132 133 132h138c22 0 40-18 40-40s-18-40-40-40h-138c-29 0-52-23-52-52v-322c0-28 23-51 52-51h138z" horiz-adv-x="1000" />

<glyph glyph-name="edit-box" unicode="&#xf10e;" d="M868 268c22 0 40-18 40-40v-246c0-73-59-132-132-132h-644c-73 0-132 59-132 132v644c0 73 59 132 132 132h246c22 0 40-18 40-40s-18-41-40-41h-246c-28 0-51-23-51-51v-644c0-28 23-51 51-51h644c28 0 51 23 51 51v246c0 22 18 40 41 40z m120 386c8-7 12-17 12-28 0-11-4-21-12-29l-459-459c-8-8-18-12-29-12h-184c-22 0-40 18-40 40v184c0 11 4 21 12 29l459 459c16 16 42 16 57 0z m-505-447l420 419-127 127-419-420v-126h126z" horiz-adv-x="1000" />

<glyph glyph-name="search" unicode="&#xf10f;" d="M723 726c80-80 124-186 124-299 0-113-44-220-124-300-80-80-186-124-300-124-113 0-219 44-299 124-80 80-124 187-124 300s44 219 124 299c80 80 186 124 299 124 114 0 220-44 300-124z m-300-642c189 0 343 154 343 343 0 189-154 342-343 342-188 0-342-153-342-342 0-189 154-343 342-343z m565-165c16-16 16-41 0-57-8-8-18-12-28-12s-21 4-29 12l-265 265c-16 16-16 42 0 58 15 15 41 15 57 0z" horiz-adv-x="1000" />

<glyph glyph-name="time" unicode="&#xf110;" d="M854 704c94-95 146-220 146-354s-52-259-146-354c-95-94-220-146-354-146s-259 52-354 146c-94 95-146 220-146 354s52 259 146 354c95 94 220 146 354 146s259-52 354-146z m-354-773c231 0 419 188 419 419s-188 419-419 419-419-188-419-419 188-419 419-419z m166 310c16-16 16-42 0-57-7-8-18-12-28-12s-21 4-29 12l-138 137c-7 8-11 18-11 29v276c0 22 18 40 40 40 22 0 40-18 40-40v-259z" horiz-adv-x="1000" />

<glyph glyph-name="home-2" unicode="&#xf111;" d="M938 520c10-8 16-20 16-32v-506c0-73-59-132-132-132h-644c-73 0-132 59-132 132v506c0 12 6 24 16 32l413 322c15 11 35 11 50 0z m-65-538v486l-373 290-373-290v-486c0-28 23-51 51-51h644c28 0 51 23 51 51z m-235 408c22 0 40-18 40-40v-460c0-22-18-40-40-40s-40 18-40 40v420h-195v-420c0-22-19-40-41-40s-40 18-40 40v460c0 22 18 40 40 40h276z" horiz-adv-x="1000" />

<glyph glyph-name="group-2" unicode="&#xf112;" d="M834 502c113-36 158-169 166-244 1-9-2-18-8-25-5-6-14-10-23-10h-273c97-73 126-190 132-220 1-4 2-8 2-12 0-17-14-31-31-31 0 0-1 0-1 0h-597c-10 0-18 4-24 11-6 7-9 16-7 25 0 2 26 143 139 227h-277c-9 0-18 4-24 11-6 6-9 15-7 24 9 75 57 205 168 243-39 22-65 64-65 111 0 71 57 129 128 129s127-58 127-129c0-47-25-87-63-110 12-4 23-8 33-14 18 78 88 137 170 137 84 0 155-60 172-140 11 7 23 12 35 16-38 23-64 64-64 111 0 71 57 129 127 129 71 0 128-58 128-129 0-47-26-87-63-110z m-65 176c-36 0-65-30-65-66 0-36 29-65 65-65 36 0 65 29 65 65 0 36-29 66-65 66z m-270-116c-62 0-112-51-112-114 0-62 50-113 112-113 62 0 113 51 113 113 0 63-51 114-113 114z m-267 116c-36 0-65-30-65-66 0-36 29-65 65-65 36 0 65 29 65 65 0 36-29 66-65 66z m2-229c-106 0-148-106-164-163h361c-53 22-92 70-103 128-2 1-3 1-4 2-25 22-55 33-90 33z m525-426c-20 65-81 197-256 197-176 0-240-131-262-197h518z m-208 257c1 0 1 0 1 0 0 0 0 0 0 0 0 0 0 0-1 0z m18 6h363c-14 57-54 163-160 163-35 0-64-10-89-32-4-3-8-4-12-6-12-57-52-104-104-126 1 0 1 1 2 1z" horiz-adv-x="1000" />

<glyph glyph-name="flower" unicode="&#xf113;" d="M979 304l21-13-10-23c-2-7-71-168-211-212-27-9-54-12-81-12-84 0-160 34-194 52l-4-3-3 3c-35-18-111-52-195-52-27 0-54 3-81 12-139 44-208 205-211 212l-10 23 21 13c3 2 72 44 159 59-13 86 5 164 6 169l6 25 25-2c4-1 83-7 161-47 40 77 99 129 103 132l19 16 19-16c4-3 64-55 103-132 78 40 157 46 161 47l25 2 6-25c1-5 19-83 6-169 87-15 156-57 159-59z m-740-192c57-19 120-7 167 9-57 18-130 52-176 115-16 22-27 46-35 69-50-7-94-25-119-38 22-42 78-128 163-155z m39 159c35-49 91-76 139-92-36 49-74 118-74 196 0 28 5 54 12 79-43 23-89 33-116 38-7-47-14-149 39-221z m222-99c33 35 99 114 99 203 0 89-66 168-99 202-33-34-98-113-98-202 0-89 65-168 98-203z m157 203c0-78-38-147-74-196 48 16 104 43 139 92 53 72 46 174 40 221-28-5-74-15-117-38 7-25 12-51 12-79z m105-263c85 27 140 113 163 155-26 12-70 31-120 38-8-23-19-47-35-69-46-63-118-97-176-115 48-16 110-28 168-9z" horiz-adv-x="1000" />

<glyph glyph-name="cards-3" unicode="&#xf114;" d="M670 850l244-246v-480c0-65-52-118-117-118l-20 0v-39c0-64-52-117-117-117h-457c-64 0-117 53-117 117v610c0 64 53 117 117 117h39v39c0 64 53 117 117 117h311z m21-132v-51c0-22 18-39 40-39h50z m8-751v39l-340 0c-64 0-117 53-117 117v493h-39c-21 0-39-18-39-39v-610c0-21 18-39 39-39h457c22 0 39 18 39 39z m137 157h0v425h-105c-65 0-118 53-118 118v105h-254c-21 0-39-18-39-39v-610c0-21 18-39 39-39l438 0c22 0 39 18 39 40z" horiz-adv-x="1000" />

<glyph glyph-name="badge" unicode="&#xf115;" d="M862 543c26-34 26-80 0-113l-31-40c-1-2-1-5-1-7v-55c1-41-31-86-70-98l-33-9v-371l-227 137-227-137v371l-33 9c-44 13-71 46-70 85v56c0 3 0 5 0 8 0 3 0 7 0 10l-32 41c-26 33-26 79 0 112l32 42c0 3 0 7 0 9 0 3 0 5 0 7v56c-1 41 26 78 67 90 1 0 2 0 3 1l56 12c3 0 5 2 7 5l32 46c23 35 67 49 107 35l53-19c3-1 7-1 10 0l54 19c39 14 83 0 106-35l32-46c2-3 5-5 8-6l55-16c43-12 70-45 70-86v-54c0-2 0-4 0-6 0-4 0-9 1-13z m-213-554h0v155c-25-20-59-27-90-16l-54 19c-3 1-7 1-10 0l-53-19c-11-4-21-5-31-5-22 0-43 7-60 21v-155l149 89 149-89v0z m151 489c4 5 4 12 0 16 0 1 0 1 0 1l-33 42c-15 18-15 42-15 60 0 1 0 3 0 5v54c0 7-11 10-14 11l-55 16c-20 6-38 19-50 36l-32 47c-4 5-10 7-16 5l-54-19c-20-7-42-7-62 0l-54 19c-6 2-12 0-16-5l-32-47c-12-17-30-30-50-36-1 0-2 0-3-1l-56-11c-6-3-10-8-10-13 0-1 0-1 0-2v-56c0-2 0-3 0-5 0-14 1-37-14-56l-34-44c0 0 0 0 0-1-4-4-4-11 0-16 0 0 0 0 0 0l34-44c15-19 14-41 14-56 0-3 0-5 0-7v-57c0 0 0 0 0-1 1-1 5-5 14-8l55-15c20-6 38-19 50-37l32-46c4-5 10-7 16-5l54 19c20 7 42 7 62 0l54-19c6-2 12 0 16 5l32 46c12 18 30 31 50 37l55 15c5 2 15 15 14 22 0 0 0 1 0 1v55c0 12 0 31 12 48 0 1 1 2 2 3z m-322 167h61v-317h-78v185l-55 47z" horiz-adv-x="1000" />

<glyph glyph-name="pie-chart" unicode="&#xf116;" d="M854 704c94-95 146-220 146-354s-52-259-146-354c-95-94-220-146-354-146s-259 52-354 146c-94 95-146 220-146 354s52 259 146 354c95 94 220 146 354 146s259-52 354-146z m67-321c-3 32-9 63-18 92l-237-236 56-55z m-51 170c-13 24-29 46-46 67l-269-269 56-57z m-331 217v-102l86 85c-28 9-56 14-86 17z m0-213v-111l229 229c-20 17-42 32-66 45z m-39-629c102 0 196 37 269 98l-308 308v436c-214-20-383-200-383-420 0-233 189-422 422-422z m325 153c43 52 74 115 88 184l-136-137z" horiz-adv-x="1000" />

<glyph glyph-name="folder" unicode="&#xf117;" d="M966 644c22-22 34-52 34-83v-525c0-65-53-118-117-118h-766c-64 0-117 53-117 118v629c0 64 53 117 117 117h302l60-90c5-9 15-14 25-14h1l378 0h0c31 0 61-12 83-34z m-888 21v-97c13 4 26 7 39 7h0l259 0 38 54c2 4 4 7 7 10-3 3-5 6-7 9l-37 56h-260c-21 0-39-18-39-39z m844-629v525c0 10-4 20-12 28-7 7-17 11-27 11l-378 0c-1 0-1 0-1 0-9 0-20-6-26-14l0-1-61-88-300 0h0c-10 0-20-5-27-12-8-7-12-17-12-28v-7-414c0-22 18-40 39-40h766c21 0 39 18 39 40z" horiz-adv-x="1000" />

<glyph glyph-name="justice" unicode="&#xf119;" d="M1000 215c0-1 0-1 0-2 0-98-80-177-178-177-98 0-177 79-177 177 0 4 0 7 1 10 0 3 1 5 2 8l122 321-178 39c-12-21-31-37-53-46v-617h199v-78h-476v78h199v617c-35 14-61 47-66 86l-156 33 113-296c0 0 0 0 0 0 2-5 4-10 4-16 0-98-80-178-178-178-98 0-178 80-178 178 0 0 0 0 0 0 0 6 1 11 3 16l150 394 263-55c12 15 27 27 45 34v109h78v-109c31-13 55-40 63-73l250-54 145-383c3-5 3-11 3-16z m-822 37c41 0 76 25 91 61h-183c15-36 51-61 92-61z m82 139l-83 216-82-216h165z m240 225c15 0 27 12 27 27s-12 27-27 27-27-12-27-27 12-27 27-27z m323-145l-83-219h166z m-1-357c41 0 77 25 92 60h-183c15-35 50-60 91-60z" horiz-adv-x="1000" />

<glyph glyph-name="graph" unicode="&#xf11a;" d="M902 631c54 0 98-44 98-97v-586c0-54-44-98-98-98h-93c-54 0-98 44-98 98v586c0 53 44 97 98 97h93z m20-683v586c0 10-9 19-20 19h-93c-11 0-20-9-20-19v-586c0-11 9-20 20-20h93c11 0 20 9 20 20z m-731 386c54 0 98-43 98-97v-289c0-54-44-98-98-98h-93c-54 0-98 44-98 98v289c0 54 44 97 98 97h93z m20-386v289c0 11-9 19-20 19h-93c-11 0-20-8-20-19v-289c0-11 9-20 20-20h93c11 0 20 9 20 20z m336 902c54 0 98-44 98-98v-804c0-54-44-98-98-98h-94c-54 0-97 44-97 98v804c0 54 43 98 97 98h94z m19-902v804c0 11-8 20-19 20h-94c-11 0-19-9-19-20v-804c0-11 8-20 19-20h94c11 0 19 9 19 20z" horiz-adv-x="1000" />

<glyph glyph-name="order" unicode="&#xf11b;" d="M902 850c54 0 98-44 98-98v-93c0-54-44-98-98-98h-804c-54 0-98 44-98 98v93c0 54 44 98 98 98h804z m20-191v93c0 11-9 20-20 20h-804c-11 0-20-9-20-20v-93c0-11 9-20 20-20h804c11 0 20 9 20 20z m-20-520c54 0 98-44 98-98v-93c0-54-44-98-98-98h-804c-54 0-98 44-98 98v93c0 54 44 98 98 98h804z m20-191v93c0 11-9 20-20 20h-804c-11 0-20-9-20-20v-93c0-11 9-20 20-20h804c11 0 20 9 20 20z m-20 547c54 0 98-44 98-98v-94c0-54-44-97-98-97h-804c-54 0-98 43-98 97v94c0 54 44 98 98 98h804z m20-192v94c0 11-9 19-20 19h-804c-11 0-20-8-20-19v-94c0-11 9-19 20-19h804c11 0 20 8 20 19z" horiz-adv-x="1000" />

<glyph glyph-name="time-2" unicode="&#xf11c;" d="M854 704c94-95 146-220 146-354s-52-259-146-354c-95-94-220-146-354-146s-259 52-354 146c-94 95-146 220-146 354s52 259 146 354c95 94 220 146 354 146s259-52 354-146z m-354-776c233 0 422 189 422 422s-189 422-422 422-422-189-422-422 189-422 422-422z m39 461h219v-78h-297v391h78v-313z" horiz-adv-x="1000" />

<glyph glyph-name="add-user" unicode="&#xf11d;" d="M499 849c159 0 289-129 289-288s-130-289-289-289c-232 0-421-189-421-421h-78c0 133 52 259 146 353 55 54 119 94 190 119-76 52-125 139-125 238 0 159 129 288 288 288z m0-499c116 0 211 94 211 211 0 116-95 210-211 210s-210-94-210-210c0-117 94-211 210-211z m337-257h164v-78h-164v-164h-78v164h-163v78h163v163h78v-163z" horiz-adv-x="1000" />

<glyph glyph-name="uniF11E" unicode="&#xf11e;" d="M768 460c57-23 108-61 147-109l-53-58c-54 71-139 117-235 117-13 0-26 1-38 3 3-15 4-30 4-46 0-122-98-221-220-221-162 0-295-132-295-295h-78c0 156 96 290 233 346-49 41-80 102-80 170 0 121 99 220 220 220 13 0 26-1 39-4-3 15-5 31-5 47 0 121 99 220 220 220 122 0 220-99 220-220 0-68-31-129-79-170z m-395-235c79 0 142 63 142 142s-63 142-142 142-142-64-142-142 64-142 142-142z m254 263c79 0 142 63 142 142 0 78-63 142-142 142s-142-64-142-142c0-79 64-142 142-142z m315-224l58-52-325-362-212 201 54 57 154-146z" horiz-adv-x="1000" />

<glyph glyph-name="home" unicode="&#xf11f;" d="M988 371c16-15 16-40 0-55-7-8-17-12-27-12s-21 4-28 12l-58 57v-421c0-53-43-96-95-96h-560c-52 0-95 43-95 96v421l-58-57c-7-8-17-12-27-12s-21 4-28 12c-16 15-16 40 0 55l124 125c1 0 1 0 1 0l322 323s0 0 0 0l13 13c16 15 41 15 56 0l13-13c0 0 0 0 0 0l323-323c0 0 0 0 0 0z m-208-436c9 0 16 8 16 17v500l-296 296-296-296v-500c0-9 7-17 16-17h560z" horiz-adv-x="1000" />

<glyph glyph-name="o-list" unicode="&#xf120;" d="M866 347c24 0 43-19 43-43v-217c0-98-62-188-154-222-27-10-55-15-83-15h-435c-131 0-237 106-237 237v435c0 130 106 237 237 237h217c24 0 43-19 43-43s-19-43-43-43h-217c-83 0-151-68-151-151v-435c0-83 68-151 151-151h435c18 0 36 3 53 9 58 22 98 79 98 142v217c0 24 19 43 43 43z m-85 503c121 0 219-98 219-219s-98-220-219-220-220 99-220 220 99 219 220 219z m0-353c73 0 133 60 133 134s-60 133-133 133-134-60-134-133 60-134 134-134z m-444-102c0 24 19 43 42 43h150c24 0 43-19 43-43s-19-43-43-43h-150c-23 0-42 19-42 43z m192-138c24 0 43-19 43-43s-19-43-43-43h-150c-23 0-42 19-42 43s19 43 42 43h150z" horiz-adv-x="1000" />

<glyph glyph-name="card-4" unicode="&#xf121;" d="M997 173c8-19 0-42-19-51l-424-192c-5-2-10-4-15-4-4 0-8 1-12 2l-500 154c-20 6-32 28-25 48 6 20 28 32 48 26l486-150 410 186c19 9 42 1 51-19z m-461-13l410 186c19 9 42 0 51-19 8-19 0-42-19-51l-424-192c-5-2-10-4-15-4-4 0-8 1-12 2l-500 154c-20 6-32 28-25 48 6 20 28 32 48 25z m-536 265c-1 16 9 31 24 37l280 118c56 24 82 53 82 155 0 12 5 23 15 30 9 8 21 10 33 7l497-122c17-4 30-20 30-38v-5c0-114 0-189-140-248-93-39-264-120-266-121-5-3-11-4-16-4-4 0-8 1-12 2l-500 154c-15 5-26 18-27 35z m151 7l385-118c42 20 175 82 255 116 85 36 92 63 93 152l-423 104c-8-78-38-139-127-177z" horiz-adv-x="1000" />

<glyph glyph-name="cards-2" unicode="&#xf122;" d="M997-7c1-8-2-16-7-22-4-6-12-10-20-11l-70-9v-71c0-17-13-30-30-30h-837c-16 0-30 13-30 30v837c0 15 12 28 27 30l830 103c17 2 32-10 34-26z m-894-83l-39 318v-318h39z m-33 738l778 96-6 48-781-97 6-48c1 0 2 0 3 1z m770-738v33l-266-33h266z m-682 4l781 97-84 673-778-96c0-1-1-1-2-1z" horiz-adv-x="1000" />

<glyph glyph-name="cards" unicode="&#xf123;" d="M578 531c-10 5-13 18-8 27 6 10 18 13 28 8l87-51c9-5 13-17 7-27-4-6-10-10-17-10-4 0-7 1-10 3z m165-95c-10 5-13 17-7 27 5 10 17 13 27 7l2-1c9-5 13-18 7-27-4-7-10-10-17-10-4 0-7 1-10 3z m-263 151c-9 6-13 18-7 28 6 9 18 12 27 7l28-16c10-6 13-18 8-28-4-6-11-10-18-10-3 0-7 1-10 3z m317-229c9-5 13-18 7-27-4-7-10-10-17-10-4 0-7 1-10 2l-409 236c-10 6-13 18-7 28 5 9 18 13 27 7z m-536 43c-5 3-8 7-10 12-1 5-1 11 2 15l55 96c6 10 18 13 28 7l95-55c5-2 8-7 10-12 1-5 0-11-2-15l-55-96c-4-6-11-10-18-10-3 0-7 1-10 3z m72 86l-35-61 61-35 35 61z m3-176c5-3 8-7 9-12 2-5 1-11-2-15l-55-96c-4-6-10-10-17-10-4 0-7 1-10 3l-96 55c-4 3-8 7-9 12-2 5-1 11 2 15l55 96c6 10 18 13 27 7z m-73-85l36 60-61 35-35-60z m466 15c10-6 13-18 7-28-3-6-10-10-17-10-4 0-7 1-10 3l-2 1c-9 6-13 18-7 27 5 10 18 13 27 8z m-224 82l-52 31c-9 5-13 17-7 27s18 13 27 7l53-30c9-5 12-18 7-27-4-7-11-10-18-10-3 0-6 1-10 2z m144-36c10-6 13-18 7-28-3-6-10-10-17-10-4 0-7 1-10 3l-54 31c-10 6-13 18-7 28s17 13 27 7z m-198-106c10-6 13-18 7-27-3-7-10-10-17-10-3 0-7 0-10 2l-73 42c-10 6-13 18-7 28 5 9 17 13 27 7z m88-51c9-5 13-18 7-27-4-7-10-10-17-10-4 0-7 1-10 3l-19 10c-9 6-12 18-7 27 6 10 18 13 28 8z m458 101c6-9 3-21-7-27l-189-109-87-151c-3-5-7-8-12-10l-186-49c-2-1-3-1-5-1-4 0-7 1-10 3l-30 17-90-51c-3-2-6-3-10-3-6 0-13 4-17 10l-96 167-248 143c-10 6-13 18-7 28l78 135-78 136c-6 9-3 21 7 27l248 143 96 167c6 10 18 13 27 7l90-51 148 85c9 6 21 3 27-7l155-269 189-109c5-3 8-7 9-12 2-5 1-11-2-15l-58-102z m-376 572l-110-64 221-128z m-573-332l56-98 113 196z m331-574l51 30-103 60z m174 39l92 25-59 33z m136 45l264 456-574 332-331-574 456-264 58 101c5 9 17 13 27 7z m152 184l112 64-37 64z" horiz-adv-x="1000" />

<glyph glyph-name="card" unicode="&#xf124;" d="M976 726c16-17 24-36 24-59v-634c0-23-8-42-24-59-17-16-36-24-59-24h-834c-23 0-42 8-58 24-17 17-25 36-25 59v634c0 23 8 42 25 59 16 16 35 24 58 24h834c23 0 42-8 59-24z m-43-693h0v317h-866v-317c0-4 1-8 5-11 3-4 7-5 11-5h834c4 0 8 1 11 5 4 3 5 7 5 11z m0 517h0v117c0 4-1 8-5 11-3 4-7 5-11 5h-834c-4 0-8-1-11-5-4-3-5-7-5-11v-117h866z m-800-467v67h134v-67h-134z m200 0v67h200v-67h-200z" horiz-adv-x="1000" />

<glyph glyph-name="user" unicode="&#xf125;" d="M500 287c301 0 466-142 466-401 0-20-16-36-37-36h-858c-21 0-37 16-37 36 0 259 166 401 466 401z m-392-364h784c-15 193-146 291-392 291s-377-98-392-291z m392 927c138 0 242-106 242-247 0-145-108-263-242-263s-242 118-242 263c0 141 104 247 242 247z m0-437c93 0 169 85 169 190 0 99-73 174-169 174-98 0-169-73-169-174 0-105 76-190 169-190z" horiz-adv-x="1000" />

<glyph glyph-name="cancel" unicode="&#xf136;" d="M584 582l-234-232 234-232-59-59-234 232-232-232-59 59 232 232-232 232 59 59 232-232 234 232z" horiz-adv-x="584" />

<glyph glyph-name="edit" unicode="&#xf158;" d="M0 131l461 461 156-156-461-461h-156v156z m738 426l-76-76-156 156 76 76q12 12 29 12t30-12l97-97q12-12 12-30t-12-29z" horiz-adv-x="750" />
</font>
</defs>
</svg>
